<svg xmlns="http://www.w3.org/2000/svg" width="24" height="24" viewBox="0 0 24 24" fill="none">
  <path
    fill="#E4405F"
    d="M7.75 2h8.5A5.75 5.75 0 0 1 22 7.75v8.5A5.75 5.75 0 0 1 16.25 22h-8.5A5.75 5.75 0 0 1 2 16.25v-8.5A5.75 5.75 0 0 1 7.75 2Zm0 1.5A4.25 4.25 0 0 0 3.5 7.75v8.5A4.25 4.25 0 0 0 7.75 20.5h8.5a4.25 4.25 0 0 0 4.25-4.25v-8.5A4.25 4.25 0 0 0 16.25 3.5h-8.5Zm8.75 1.75a1.125 1.125 0 1 1 0 2.25 1.125 1.125 0 0 1 0-2.25ZM12 7a5 5 0 1 1 0 10 5 5 0 0 1 0-10Zm0 1.5a3.5 3.5 0 1 0 0 7 3.5 3.5 0 0 0 0-7Z"
  />
</svg>
